<svg width="257" height="273" viewBox="0 0 257 273" fill="none" xmlns="http://www.w3.org/2000/svg">
<rect width="108" height="111" transform="translate(68 93)" fill="white"/>
<path d="M129.785 109.234L137.705 125.514C138.785 127.78 141.665 129.954 144.095 130.37L158.45 132.821C167.63 134.394 169.79 141.239 163.175 147.991L152.015 159.461C150.125 161.404 149.09 165.15 149.675 167.832L152.87 182.031C155.39 193.27 149.585 197.617 139.91 191.744L126.455 183.557C124.025 182.077 120.02 182.077 117.545 183.557L104.09 191.744C94.46 197.617 88.61 193.224 91.13 182.031L94.325 167.832C94.91 165.15 93.875 161.404 91.985 159.461L80.825 147.991C74.255 141.239 76.37 134.394 85.55 132.821L99.905 130.37C102.29 129.954 105.17 127.78 106.25 125.514L114.17 109.234C118.49 100.4 125.51 100.4 129.785 109.234Z" fill="#FFB9B9" stroke="black" stroke-width="1.5" stroke-linecap="round" stroke-linejoin="round"/>
<line x1="121.5" y1="95" x2="121.5" stroke="black"/>
<line y1="-0.5" x2="74.8671" y2="-0.5" transform="matrix(-0.941639 -0.336624 0.301363 -0.953509 71.4978 136.091)" stroke="black"/>
<line y1="-0.5" x2="92.1861" y2="-0.5" transform="matrix(-0.623762 0.781614 -0.742313 -0.670053 89.8628 195.946)" stroke="black"/>
<line y1="-0.5" x2="89.4561" y2="-0.5" transform="matrix(0.941229 -0.337768 0.302413 0.953177 172.801 137.352)" stroke="black"/>
<line y1="-0.5" x2="92.3582" y2="-0.5" transform="matrix(0.599362 0.800478 -0.763103 0.646277 154.436 199.069)" stroke="black"/>
</svg>
